<svg width="63" height="48" viewBox="0 0 63 48" fill="none" xmlns="http://www.w3.org/2000/svg">
<mask id="mask0_402_35" style="mask-type:alpha" maskUnits="userSpaceOnUse" x="8" y="2" width="45" height="45">
<path d="M30.5641 46.0911C18.4292 46.0911 8.59187 36.243 8.59187 24.0946C8.59187 11.9463 18.4292 2.0982 30.5641 2.0982C42.6989 2.0982 52.5361 11.9463 52.5361 24.0946C52.5361 36.243 42.6989 46.0911 30.5641 46.0911Z" fill="#FFC401"/>
</mask>
<g mask="url(#mask0_402_35)">
<path d="M30.6197 46.0911C18.4848 46.0911 8.64753 36.243 8.64753 24.0946C8.64753 11.9463 18.4848 2.0982 30.6197 2.0982C42.7546 2.0982 52.5918 11.9463 52.5918 24.0946C52.5918 36.243 42.7546 46.0911 30.6197 46.0911Z" fill="#40B1D0"/>
<path fill-rule="evenodd" clip-rule="evenodd" d="M14.4778 39.0181C18.492 43.3675 24.2382 46.0911 30.6198 46.0911C36.9728 46.0911 42.6961 43.3919 46.7077 39.0764C42.6028 34.8908 36.8863 32.2945 30.5641 32.2945C24.2713 32.2945 18.5786 34.8667 14.4778 39.0181Z" fill="#8BC34A"/>
</g>
<path d="M12.3999 25.9564C12.3999 25.4041 12.8476 24.9564 13.3999 24.9564H15.2042C15.7564 24.9564 16.2042 25.4041 16.2042 25.9564C16.2042 26.5087 15.7564 26.9564 15.2042 26.9564H13.3999C12.8476 26.9564 12.3999 26.5087 12.3999 25.9564Z" fill="white"/>
<path d="M17.394 12.4715C17.7845 12.0809 18.4177 12.0809 18.8082 12.4715L20.084 13.7473C20.4745 14.1378 20.4745 14.771 20.084 15.1615C19.6935 15.552 19.0603 15.552 18.6698 15.1615L17.394 13.8857C17.0034 13.4951 17.0034 12.862 17.394 12.4715Z" fill="white"/>
<path d="M44.0841 12.4715C43.6935 12.0809 43.0604 12.0809 42.6698 12.4715L41.394 13.7473C41.0035 14.1378 41.0035 14.771 41.394 15.1615C41.7846 15.552 42.4177 15.552 42.8083 15.1615L44.0841 13.8857C44.4746 13.4951 44.4746 12.862 44.0841 12.4715Z" fill="white"/>
<path d="M49.3794 25.9564C49.3794 25.4041 48.9317 24.9564 48.3794 24.9564H46.5751C46.0228 24.9564 45.5751 25.4041 45.5751 25.9564V25.9564C45.5751 26.5087 46.0228 26.9564 46.5751 26.9564H48.3794C48.9317 26.9564 49.3794 26.5087 49.3794 25.9564V25.9564Z" fill="white"/>
<path d="M30.8955 6.88801C31.4478 6.88801 31.8955 7.33572 31.8955 7.88801L31.8955 9.69227C31.8955 10.2446 31.4478 10.6923 30.8955 10.6923V10.6923C30.3432 10.6923 29.8955 10.2446 29.8955 9.69227L29.8955 7.88801C29.8955 7.33572 30.3432 6.88801 30.8955 6.88801V6.88801Z" fill="white"/>
<path fill-rule="evenodd" clip-rule="evenodd" d="M42.3876 13.995C42.9649 14.5892 42.9513 15.5388 42.3571 16.1161L33.1372 25.0753C32.5431 25.6527 31.5934 25.6391 31.0161 25.0449C30.4388 24.4508 30.4524 23.5011 31.0465 22.9238L40.2665 13.9646C40.8606 13.3873 41.8102 13.4009 42.3876 13.995Z" fill="#3694AE"/>
<path d="M35.2812 24.745C35.2812 27.1275 33.3499 29.0589 30.9674 29.0589C28.5849 29.0589 26.6536 27.1275 26.6536 24.745C26.6536 22.3626 28.5849 20.4312 30.9674 20.4312C33.3499 20.4312 35.2812 22.3626 35.2812 24.745Z" fill="#343A49"/>
<path fill-rule="evenodd" clip-rule="evenodd" d="M30.9674 27.9804C32.7543 27.9804 34.2028 26.5319 34.2028 24.745C34.2028 22.9582 32.7543 21.5096 30.9674 21.5096C29.1806 21.5096 27.732 22.9582 27.732 24.745C27.732 26.5319 29.1806 27.9804 30.9674 27.9804ZM30.9674 29.0589C33.3499 29.0589 35.2812 27.1275 35.2812 24.745C35.2812 22.3626 33.3499 20.4312 30.9674 20.4312C28.5849 20.4312 26.6536 22.3626 26.6536 24.745C26.6536 27.1275 28.5849 29.0589 30.9674 29.0589Z" fill="#40B1D0"/>
</svg>
